<?xml version="1.0" encoding="UTF-8" standalone="no"?>
    <!DOCTYPE svg PUBLIC "-//W3C//DTD SVG 1.1//EN" "http://www.w3.org/Graphics/SVG/1.1/DTD/svg11.dtd">
    <svg xmlns="http://www.w3.org/2000/svg" class="" width="100%" height="100%" viewBox="0 0 18 19">
        <g id="best">
    <path class="icon-shadow" opacity="0.3" d="M9,.5a9,9,0,1,0,9,9A9,9,0,0,0,9,.5Z"></path>
    <path class="icon-background" fill="#96bc4b" d="M9,0a9,9,0,1,0,9,9A9,9,0,0,0,9,0Z"></path>
    <path class="icon-component-shadow" opacity="0.2" d="M9,3.43a.5.5,0,0,0-.27.08.46.46,0,0,0-.17.22L7.24,7.17l-3.68.19a.52.52,0,0,0-.26.1.53.53,0,0,0-.16.23.45.45,0,0,0,0,.28.44.44,0,0,0,.15.23l2.86,2.32-1,3.56a.45.45,0,0,0,0,.28.46.46,0,0,0,.17.22.41.41,0,0,0,.26.09.43.43,0,0,0,.27-.08l3.09-2,3.09,2a.46.46,0,0,0,.53,0,.46.46,0,0,0,.17-.22.53.53,0,0,0,0-.28l-1-3.56L14.71,8.2A.44.44,0,0,0,14.86,8a.45.45,0,0,0,0-.28.53.53,0,0,0-.16-.23.52.52,0,0,0-.26-.1l-3.68-.2L9.44,3.73a.46.46,0,0,0-.17-.22A.5.5,0,0,0,9,3.43Z"></path>
    <path class="icon-component" fill="#fff" d="M9,2.93A.5.5,0,0,0,8.73,3a.46.46,0,0,0-.17.22L7.24,6.67l-3.68.19A.52.52,0,0,0,3.3,7a.53.53,0,0,0-.16.23.45.45,0,0,0,0,.28.44.44,0,0,0,.15.23L6.15,10l-1,3.56a.45.45,0,0,0,0,.28.46.46,0,0,0,.17.22.41.41,0,0,0,.26.09.43.43,0,0,0,.27-.08l3.09-2,3.09,2a.46.46,0,0,0,.53,0,.46.46,0,0,0,.17-.22.53.53,0,0,0,0-.28l-1-3.56L14.71,7.7a.44.44,0,0,0,.15-.23.45.45,0,0,0,0-.28A.53.53,0,0,0,14.7,7a.52.52,0,0,0-.26-.1l-3.68-.2L9.44,3.23A.46.46,0,0,0,9.27,3,.5.5,0,0,0,9,2.93Z"></path>
  </g>
    </svg>