<?xml version="1.0" encoding="UTF-8" standalone="no"?>
    <!DOCTYPE svg PUBLIC "-//W3C//DTD SVG 1.1//EN" "http://www.w3.org/Graphics/SVG/1.1/DTD/svg11.dtd">
    <svg xmlns="http://www.w3.org/2000/svg" class="" width="100%" height="100%" viewBox="0 0 18 19">
        <g id="blunder">
    <path class="icon-shadow" opacity="0.3" d="M9,.5a9,9,0,1,0,9,9A9,9,0,0,0,9,.5Z"></path>
    <path class="icon-background" fill="#ca3431" d="M9,0a9,9,0,1,0,9,9A9,9,0,0,0,9,0Z"></path>
    <g class="icon-component-shadow" opacity="0.2">
      <path d="M14.74,5.45A2.58,2.58,0,0,0,14,4.54,3.76,3.76,0,0,0,12.89,4a4.07,4.07,0,0,0-1.2-.19A3.92,3.92,0,0,0,10.51,4a5.87,5.87,0,0,0-.9.37,3,3,0,0,0-.32.2,3.46,3.46,0,0,1,.42.63,3.29,3.29,0,0,1,.36,1.47.31.31,0,0,0,.19-.06l.11-.08a2.9,2.9,0,0,1,.29-.19,3.89,3.89,0,0,1,.41-.17,1.55,1.55,0,0,1,.48-.07,1.1,1.1,0,0,1,.72.24.72.72,0,0,1,.23.26.8.8,0,0,1,.07.34,1,1,0,0,1-.25.67,7.71,7.71,0,0,1-.65.63,6.2,6.2,0,0,0-.48.43,2.93,2.93,0,0,0-.45.54,2.55,2.55,0,0,0-.33.66,2.62,2.62,0,0,0-.13.83V11a.24.24,0,0,0,0,.12.35.35,0,0,0,.17.17l.12,0h1.71l.12,0a.23.23,0,0,0,.1-.07.21.21,0,0,0,.06-.1.27.27,0,0,0,0-.12V10.8a1,1,0,0,1,.26-.7q.27-.28.66-.63A5.79,5.79,0,0,0,14.05,9a4.51,4.51,0,0,0,.48-.6,2.56,2.56,0,0,0,.36-.72,2.81,2.81,0,0,0,.14-1A2.66,2.66,0,0,0,14.74,5.45Z"></path>
      <path d="M12.38,12.65H10.5l-.12,0a.34.34,0,0,0-.18.29v1.82a.36.36,0,0,0,.08.23.23.23,0,0,0,.1.07l.12,0h1.88a.24.24,0,0,0,.12,0,.26.26,0,0,0,.11-.07.36.36,0,0,0,.07-.1.28.28,0,0,0,0-.13V13a.27.27,0,0,0,0-.12.61.61,0,0,0-.07-.1A.32.32,0,0,0,12.38,12.65Z"></path>
      <path d="M6.79,12.65H4.91l-.12,0a.34.34,0,0,0-.18.29v1.82a.36.36,0,0,0,.08.23.23.23,0,0,0,.1.07l.12,0H6.79a.24.24,0,0,0,.12,0A.26.26,0,0,0,7,15a.36.36,0,0,0,.07-.1.28.28,0,0,0,0-.13V13a.27.27,0,0,0,0-.12.61.61,0,0,0-.07-.1A.32.32,0,0,0,6.79,12.65Z"></path>
      <path d="M8.39,4.54A3.76,3.76,0,0,0,7.3,4a4.07,4.07,0,0,0-1.2-.19A3.92,3.92,0,0,0,4.92,4a5.87,5.87,0,0,0-.9.37,3.37,3.37,0,0,0-.55.38l-.21.19a.32.32,0,0,0,0,.41l1,1.2a.26.26,0,0,0,.2.12.48.48,0,0,0,.24-.06l.11-.08a2.9,2.9,0,0,1,.29-.19l.4-.17A1.66,1.66,0,0,1,6,6.06a1.1,1.1,0,0,1,.72.24.72.72,0,0,1,.23.26A.77.77,0,0,1,7,6.9a1,1,0,0,1-.26.67,7.6,7.6,0,0,1-.64.63,6.28,6.28,0,0,0-.49.43,2.93,2.93,0,0,0-.45.54,2.72,2.72,0,0,0-.33.66,2.62,2.62,0,0,0-.13.83V11a.43.43,0,0,0,0,.12.39.39,0,0,0,.08.1.18.18,0,0,0,.1.07.21.21,0,0,0,.12,0H6.72l.12,0a.23.23,0,0,0,.1-.07.36.36,0,0,0,.07-.1A.5.5,0,0,0,7,11V10.8a1,1,0,0,1,.27-.7A8,8,0,0,1,8,9.47c.18-.15.35-.31.52-.48A7,7,0,0,0,9,8.39a3.23,3.23,0,0,0,.36-.72,3.07,3.07,0,0,0,.13-1,2.66,2.66,0,0,0-.29-1.27A2.58,2.58,0,0,0,8.39,4.54Z"></path>
    </g>
    <g>
      <path class="icon-component" fill="#fff" d="M14.74,5A2.58,2.58,0,0,0,14,4a3.76,3.76,0,0,0-1.09-.56,4.07,4.07,0,0,0-1.2-.19,3.92,3.92,0,0,0-1.18.17,5.87,5.87,0,0,0-.9.37,3,3,0,0,0-.32.2,3.46,3.46,0,0,1,.42.63,3.29,3.29,0,0,1,.36,1.47.31.31,0,0,0,.19-.06L10.37,6a2.9,2.9,0,0,1,.29-.19,3.89,3.89,0,0,1,.41-.17,1.55,1.55,0,0,1,.48-.07,1.1,1.1,0,0,1,.72.24.72.72,0,0,1,.23.26.8.8,0,0,1,.07.34,1,1,0,0,1-.25.67,7.71,7.71,0,0,1-.65.63,6.2,6.2,0,0,0-.48.43,2.93,2.93,0,0,0-.45.54,2.55,2.55,0,0,0-.33.66,2.62,2.62,0,0,0-.13.83v.35a.24.24,0,0,0,0,.12.35.35,0,0,0,.17.17l.12,0h1.71l.12,0a.23.23,0,0,0,.1-.07.21.21,0,0,0,.06-.1.27.27,0,0,0,0-.12V10.3a1,1,0,0,1,.26-.7q.27-.28.66-.63a5.79,5.79,0,0,0,.51-.48,4.51,4.51,0,0,0,.48-.6,2.56,2.56,0,0,0,.36-.72,2.81,2.81,0,0,0,.14-1A2.66,2.66,0,0,0,14.74,5Z"></path>
      <path class="icon-component" fill="#fff" d="M12.38,12.15H10.5l-.12,0a.34.34,0,0,0-.18.29v1.82a.36.36,0,0,0,.08.23.23.23,0,0,0,.1.07l.12,0h1.88a.24.24,0,0,0,.12,0,.26.26,0,0,0,.11-.07.36.36,0,0,0,.07-.1.28.28,0,0,0,0-.13V12.46a.27.27,0,0,0,0-.12.61.61,0,0,0-.07-.1A.32.32,0,0,0,12.38,12.15Z"></path>
      <path class="icon-component" fill="#fff" d="M6.79,12.15H4.91l-.12,0a.34.34,0,0,0-.18.29v1.82a.36.36,0,0,0,.08.23.23.23,0,0,0,.1.07l.12,0H6.79a.24.24,0,0,0,.12,0A.26.26,0,0,0,7,14.51a.36.36,0,0,0,.07-.1.28.28,0,0,0,0-.13V12.46a.27.27,0,0,0,0-.12.61.61,0,0,0-.07-.1A.32.32,0,0,0,6.79,12.15Z"></path>
      <path class="icon-component" fill="#fff" d="M8.39,4A3.76,3.76,0,0,0,7.3,3.48a4.07,4.07,0,0,0-1.2-.19,3.92,3.92,0,0,0-1.18.17,5.87,5.87,0,0,0-.9.37,3.37,3.37,0,0,0-.55.38l-.21.19a.32.32,0,0,0,0,.41l1,1.2a.26.26,0,0,0,.2.12.48.48,0,0,0,.24-.06L4.78,6a2.9,2.9,0,0,1,.29-.19l.4-.17A1.66,1.66,0,0,1,6,5.56a1.1,1.1,0,0,1,.72.24.72.72,0,0,1,.23.26A.77.77,0,0,1,7,6.4a1,1,0,0,1-.26.67,7.6,7.6,0,0,1-.64.63,6.28,6.28,0,0,0-.49.43,2.93,2.93,0,0,0-.45.54,2.72,2.72,0,0,0-.33.66,2.62,2.62,0,0,0-.13.83v.35a.43.43,0,0,0,0,.12.39.39,0,0,0,.08.1.18.18,0,0,0,.1.07.21.21,0,0,0,.12,0H6.72l.12,0a.23.23,0,0,0,.1-.07.36.36,0,0,0,.07-.1.5.5,0,0,0,0-.12V10.3a1,1,0,0,1,.27-.7A8,8,0,0,1,8,9c.18-.15.35-.31.52-.48A7,7,0,0,0,9,7.89a3.23,3.23,0,0,0,.36-.72,3.07,3.07,0,0,0,.13-1A2.66,2.66,0,0,0,9.15,5,2.58,2.58,0,0,0,8.39,4Z"></path>
    </g>
  </g>
    </svg>