<?xml version="1.0" encoding="UTF-8" standalone="no"?>
    <!DOCTYPE svg PUBLIC "-//W3C//DTD SVG 1.1//EN" "http://www.w3.org/Graphics/SVG/1.1/DTD/svg11.dtd">
    <svg xmlns="http://www.w3.org/2000/svg" class="" width="100%" height="100%" viewBox="0 0 18 19">
        <g id="Brilliant">
    <path class="icon-shadow" opacity="0.3" d="M9,.5a9,9,0,1,0,9,9A9,9,0,0,0,9,.5Z"></path>
    <path class="icon-background" fill="#1bada6" d="M9,0a9,9,0,1,0,9,9A9,9,0,0,0,9,0Z"></path>
    <g class="icon-component-shadow" opacity="0.2">
      <path d="M12.57,14.6a.51.51,0,0,1,0,.13.44.44,0,0,1-.08.11l-.11.08-.13,0h-2l-.13,0L10,14.84A.41.41,0,0,1,10,14.6V12.7a.32.32,0,0,1,.09-.23.39.39,0,0,1,.1-.08l.13,0h2a.31.31,0,0,1,.24.1.39.39,0,0,1,.08.1.51.51,0,0,1,0,.13Zm-.12-3.93a.17.17,0,0,1,0,.12.41.41,0,0,1-.07.11.4.4,0,0,1-.23.08H10.35a.31.31,0,0,1-.34-.31L9.86,3.9A.36.36,0,0,1,10,3.66a.23.23,0,0,1,.11-.08.27.27,0,0,1,.13,0H12.3a.32.32,0,0,1,.25.1.36.36,0,0,1,.09.24Z"></path>
      <path d="M8.07,14.6a.51.51,0,0,1,0,.13.44.44,0,0,1-.08.11l-.11.08-.13,0h-2l-.13,0-.11-.08a.41.41,0,0,1-.08-.24V12.7a.27.27,0,0,1,0-.13.36.36,0,0,1,.07-.1.39.39,0,0,1,.1-.08l.13,0h2a.31.31,0,0,1,.24.1.39.39,0,0,1,.08.1.51.51,0,0,1,0,.13ZM8,10.67a.17.17,0,0,1,0,.12.41.41,0,0,1-.07.11.4.4,0,0,1-.23.08H5.85a.31.31,0,0,1-.34-.31L5.36,3.9a.36.36,0,0,1,.09-.24.23.23,0,0,1,.11-.08.27.27,0,0,1,.13,0H7.8a.35.35,0,0,1,.25.1.36.36,0,0,1,.09.24Z"></path>
    </g>
    <g>
      <path class="icon-component" fill="#fff" d="M12.57,14.1a.51.51,0,0,1,0,.13.44.44,0,0,1-.08.11l-.11.08-.13,0h-2l-.13,0L10,14.34A.41.41,0,0,1,10,14.1V12.2A.32.32,0,0,1,10,12a.39.39,0,0,1,.1-.08l.13,0h2a.31.31,0,0,1,.24.1.39.39,0,0,1,.08.1.51.51,0,0,1,0,.13Zm-.12-3.93a.17.17,0,0,1,0,.12.41.41,0,0,1-.07.11.4.4,0,0,1-.23.08H10.35a.31.31,0,0,1-.34-.31L9.86,3.4A.36.36,0,0,1,10,3.16a.23.23,0,0,1,.11-.08.27.27,0,0,1,.13,0H12.3a.32.32,0,0,1,.25.1.36.36,0,0,1,.09.24Z"></path>
      <path class="icon-component" fill="#fff" d="M8.07,14.1a.51.51,0,0,1,0,.13.44.44,0,0,1-.08.11l-.11.08-.13,0h-2l-.13,0-.11-.08a.41.41,0,0,1-.08-.24V12.2a.27.27,0,0,1,0-.13.36.36,0,0,1,.07-.1.39.39,0,0,1,.1-.08l.13,0h2A.31.31,0,0,1,8,12a.39.39,0,0,1,.08.1.51.51,0,0,1,0,.13ZM8,10.17a.17.17,0,0,1,0,.12.41.41,0,0,1-.07.11.4.4,0,0,1-.23.08H5.85a.31.31,0,0,1-.34-.31L5.36,3.4a.36.36,0,0,1,.09-.24.23.23,0,0,1,.11-.08.27.27,0,0,1,.13,0H7.8a.35.35,0,0,1,.25.1.36.36,0,0,1,.09.24Z"></path>
    </g>
  </g>
    </svg>