<?xml version="1.0" encoding="UTF-8" standalone="no"?>
    <!DOCTYPE svg PUBLIC "-//W3C//DTD SVG 1.1//EN" "http://www.w3.org/Graphics/SVG/1.1/DTD/svg11.dtd">
    <svg xmlns="http://www.w3.org/2000/svg" class="" width="100%" height="100%" viewBox="0 0 18 19">
        <g id="checkmate_white">
    <path class="icon-shadow" opacity="0.3" d="M9,.5a9,9,0,1,0,9,9A9,9,0,0,0,9,.5Z"></path>
    <circle class="icon-background" fill="#f8f8f8" cx="9" cy="9" r="8.5"></circle>
    <path class="icon-component-shadow" fill="#e8e8e8" d="M9,1A8,8,0,1,1,1,9,8,8,0,0,1,9,1M9,0a9,9,0,1,0,9,9A9,9,0,0,0,9,0Z"></path>
    <path d="M11.44,8.11h1.74l.1-1.55H11.54l.18-2.78H10.17L10,6.56H8.31l.18-2.78H6.94L6.76,6.56H5l-.1,1.55H6.66L6.55,9.79H4.82l-.1,1.55H6.46l-.18,2.78H7.83L8,11.34H9.69l-.18,2.78h1.55l.18-2.78H13l.1-1.55H11.34ZM8.11,9.79l.1-1.68H9.89l-.1,1.68Z"></path>
  </g>
    </svg>