<?xml version="1.0" encoding="UTF-8" standalone="no"?>
    <!DOCTYPE svg PUBLIC "-//W3C//DTD SVG 1.1//EN" "http://www.w3.org/Graphics/SVG/1.1/DTD/svg11.dtd">
    <svg xmlns="http://www.w3.org/2000/svg" class="" width="100%" height="100%" viewBox="0 0 18 19">
        <g id="excellent">
    <g>
      <path class="icon-shadow" opacity="0.3" d="M9,.5a9,9,0,1,0,9,9A9,9,0,0,0,9,.5Z"></path>
      <path class="icon-background" fill="#96bc4b" d="M9,0a9,9,0,1,0,9,9A9,9,0,0,0,9,0Z"></path>
    </g>
    <g class="icon-component-shadow" opacity="0.2">
      <path d="M13.79,11.34c0-.2.4-.53.4-.94S14,9.72,14,9.58a2.06,2.06,0,0,0,.18-.83,1,1,0,0,0-.3-.69,1.13,1.13,0,0,0-.55-.2,10.29,10.29,0,0,1-2.07,0c-.37-.23,0-1.18.18-1.7S11.9,4,10.62,3.7c-.69-.17-.66.37-.78.9-.05.21-.09.43-.13.57A5,5,0,0,1,7.05,8.23a1.57,1.57,0,0,1-.42.18v4.94A7.23,7.23,0,0,1,8,13.53c.52.12.91.25,1.44.33A11.11,11.11,0,0,0,11,14a6.65,6.65,0,0,0,1.18,0,1.09,1.09,0,0,0,1-.59.66.66,0,0,0,.06-.2,1.63,1.63,0,0,1,.07-.3c.13-.28.37-.3.5-.68S13.74,11.53,13.79,11.34Z"></path>
      <path d="M5.49,8.09H4.31a.5.5,0,0,0-.5.5v4.56a.5.5,0,0,0,.5.5H5.49a.5.5,0,0,0,.5-.5V8.59A.5.5,0,0,0,5.49,8.09Z"></path>
    </g>
    <g>
      <path class="icon-component" fill="#fff" d="M13.79,10.84c0-.2.4-.53.4-.94S14,9.22,14,9.08a2.06,2.06,0,0,0,.18-.83,1,1,0,0,0-.3-.69,1.13,1.13,0,0,0-.55-.2,10.29,10.29,0,0,1-2.07,0c-.37-.23,0-1.18.18-1.7s.51-2.12-.77-2.43c-.69-.17-.66.37-.78.9-.05.21-.09.43-.13.57A5,5,0,0,1,7.05,7.73a1.57,1.57,0,0,1-.42.18v4.94A7.23,7.23,0,0,1,8,13c.52.12.91.25,1.44.33a11.11,11.11,0,0,0,1.62.16,6.65,6.65,0,0,0,1.18,0,1.09,1.09,0,0,0,1-.59.66.66,0,0,0,.06-.2,1.63,1.63,0,0,1,.07-.3c.13-.28.37-.3.5-.68S13.74,11,13.79,10.84Z"></path>
      <path class="icon-component" fill="#fff" d="M5.49,7.59H4.31a.5.5,0,0,0-.5.5v4.56a.5.5,0,0,0,.5.5H5.49a.5.5,0,0,0,.5-.5V8.09A.5.5,0,0,0,5.49,7.59Z"></path>
    </g>
  </g>
    </svg>