<?xml version="1.0" encoding="UTF-8" standalone="no"?>
    <!DOCTYPE svg PUBLIC "-//W3C//DTD SVG 1.1//EN" "http://www.w3.org/Graphics/SVG/1.1/DTD/svg11.dtd">
    <svg xmlns="http://www.w3.org/2000/svg" class="" width="100%" height="100%" viewBox="0 0 18 19">
        <g id="forced">
    <g id="fast_win">
      <g>
        <path class="icon-shadow" opacity="0.3" d="M9,.5a9,9,0,1,0,9,9A9,9,0,0,0,9,.5Z"></path>
        <path class="icon-background" fill="#96af8b" d="M9,0a9,9,0,1,0,9,9A9,9,0,0,0,9,0Z"></path>
      </g>
    </g>
    <g class="icon-component-shadow" opacity="0.2">
      <path d="M14.39,9.07,9,4.31a.31.31,0,0,0-.3,0,.32.32,0,0,0-.13.1.29.29,0,0,0,0,.16V7.42H3.9a.58.58,0,0,0-.19,0,.5.5,0,0,0-.17.11.91.91,0,0,0-.11.16.63.63,0,0,0,0,.19v3.41a.58.58,0,0,0,0,.19.64.64,0,0,0,.11.16.39.39,0,0,0,.17.11.41.41,0,0,0,.19,0H8.5v2.74a.26.26,0,0,0,.16.26.3.3,0,0,0,.16,0A.34.34,0,0,0,9,14.79L14.39,10a.69.69,0,0,0,.16-.22.7.7,0,0,0,0-.52A.69.69,0,0,0,14.39,9.07Z"></path>
    </g>
    <path class="icon-component" fill="#fff" d="M14.39,8.57,9,3.81a.31.31,0,0,0-.3,0,.32.32,0,0,0-.13.1A.29.29,0,0,0,8.5,4V6.92H3.9a.58.58,0,0,0-.19,0,.5.5,0,0,0-.17.11.91.91,0,0,0-.11.16.63.63,0,0,0,0,.19v3.41a.58.58,0,0,0,0,.19.64.64,0,0,0,.11.16.39.39,0,0,0,.17.11.41.41,0,0,0,.19,0H8.5v2.74a.26.26,0,0,0,.16.26.3.3,0,0,0,.16,0A.34.34,0,0,0,9,14.29l5.42-4.76a.69.69,0,0,0,.16-.22.7.7,0,0,0,0-.52A.69.69,0,0,0,14.39,8.57Z"></path>
  </g>
    </svg>