<?xml version="1.0" encoding="UTF-8" standalone="no"?>
    <!DOCTYPE svg PUBLIC "-//W3C//DTD SVG 1.1//EN" "http://www.w3.org/Graphics/SVG/1.1/DTD/svg11.dtd">
    <svg xmlns="http://www.w3.org/2000/svg" class="" width="100%" height="100%" viewBox="0 0 18 19">
        <g id="good">
    <g>
      <path class="icon-shadow" opacity="0.3" d="M9,.5a9,9,0,1,0,9,9A9,9,0,0,0,9,.5Z"></path>
      <path class="icon-background" fill="#96af8b" d="M9,0a9,9,0,1,0,9,9A9,9,0,0,0,9,0Z"></path>
    </g>
    <g>
      <path class="icon-component-shadow" opacity="0.2" d="M15.11,6.81,9.45,12.47,7.79,14.13a.39.39,0,0,1-.28.11.39.39,0,0,1-.27-.11L2.89,9.78a.39.39,0,0,1-.11-.28.39.39,0,0,1,.11-.27L4.28,7.85a.34.34,0,0,1,.12-.09l.15,0a.37.37,0,0,1,.15,0,.38.38,0,0,1,.13.09l2.69,2.68,5.65-5.65a.38.38,0,0,1,.13-.09.37.37,0,0,1,.15,0,.4.4,0,0,1,.15,0,.34.34,0,0,1,.12.09l1.39,1.38a.41.41,0,0,1,.08.13.33.33,0,0,1,0,.15.4.4,0,0,1,0,.15A.5.5,0,0,1,15.11,6.81Z"></path>
      <path class="icon-component" fill="#fff" d="M15.11,6.31,9.45,12,7.79,13.63a.39.39,0,0,1-.28.11.39.39,0,0,1-.27-.11L2.89,9.28A.39.39,0,0,1,2.78,9a.39.39,0,0,1,.11-.27L4.28,7.35a.34.34,0,0,1,.12-.09l.15,0a.37.37,0,0,1,.15,0,.38.38,0,0,1,.13.09L7.52,10l5.65-5.65a.38.38,0,0,1,.13-.09.37.37,0,0,1,.15,0,.4.4,0,0,1,.15,0,.34.34,0,0,1,.12.09l1.39,1.38a.41.41,0,0,1,.08.13.33.33,0,0,1,0,.15.4.4,0,0,1,0,.15A.5.5,0,0,1,15.11,6.31Z"></path>
    </g>
  </g>
    </svg>