<?xml version="1.0" encoding="UTF-8" standalone="no"?>
    <!DOCTYPE svg PUBLIC "-//W3C//DTD SVG 1.1//EN" "http://www.w3.org/Graphics/SVG/1.1/DTD/svg11.dtd">
    <svg xmlns="http://www.w3.org/2000/svg" class="" width="100%" height="100%" viewBox="0 0 18 19">
        <g id="incorrect">
    <path class="icon-shadow" opacity="0.3" d="M9,.5a9,9,0,1,0,9,9A9,9,0,0,0,9,.5Z"></path>
    <path class="icon-background" fill="#ca3431" d="M9,0a9,9,0,1,0,9,9A9,9,0,0,0,9,0Z"></path>
    <g class="icon-component-shadow" opacity="0.2">
      <path d="M14,12.51a.57.57,0,0,1,.08.13.39.39,0,0,1,0,.3.5.5,0,0,1-.08.12l-1.38,1.38a.5.5,0,0,1-.12.08l-.15,0-.15,0a.57.57,0,0,1-.13-.08L9,11.37,5.94,14.44a.57.57,0,0,1-.13.08l-.15,0-.15,0a.36.36,0,0,1-.12-.08L4,13.06a.39.39,0,0,1-.11-.27A.41.41,0,0,1,4,12.51L7.07,9.45,4,6.39a.43.43,0,0,1-.11-.28A.39.39,0,0,1,4,5.84L5.39,4.46a.39.39,0,0,1,.27-.11.43.43,0,0,1,.28.11L9,7.52l3.06-3.06a.41.41,0,0,1,.28-.11.39.39,0,0,1,.27.11L14,5.84a.36.36,0,0,1,.08.12.39.39,0,0,1,0,.3.57.57,0,0,1-.08.13L10.92,9.45Z"></path>
    </g>
    <path class="icon-component" fill="#f1f2f2" d="M14,12a.57.57,0,0,1,.08.13.39.39,0,0,1,0,.3.5.5,0,0,1-.08.12l-1.38,1.38a.5.5,0,0,1-.12.08l-.15,0-.15,0a.57.57,0,0,1-.13-.08L9,10.87,5.94,13.94a.57.57,0,0,1-.13.08l-.15,0-.15,0a.36.36,0,0,1-.12-.08L4,12.56a.39.39,0,0,1-.11-.27A.41.41,0,0,1,4,12L7.07,9,4,5.89a.43.43,0,0,1-.11-.28A.39.39,0,0,1,4,5.34L5.39,4a.39.39,0,0,1,.27-.11A.43.43,0,0,1,5.94,4L9,7,12.06,4a.41.41,0,0,1,.28-.11.39.39,0,0,1,.27.11L14,5.34a.36.36,0,0,1,.08.12.39.39,0,0,1,0,.3.57.57,0,0,1-.08.13L10.92,9Z"></path>
  </g>
    </svg>